<svg width="1440" height="1666" viewBox="0 0 1440 1666" fill="none" xmlns="http://www.w3.org/2000/svg">
<g clip-path="url(#clip0_77_47)">
<rect width="1440" height="1666" fill="white"/>
<g filter="url(#filter0_d_77_47)">
<rect width="1440" height="80" fill="white"/>
<g clip-path="url(#clip1_77_47)">
<path d="M296.762 44.7071C300.129 44.7071 302.858 41.9884 302.858 38.6348C302.858 35.2811 300.129 32.5625 296.762 32.5625C293.396 32.5625 290.667 35.2811 290.667 38.6348C290.667 41.9884 293.396 44.7071 296.762 44.7071Z" stroke="#F19F00" stroke-width="4" stroke-linecap="round" stroke-linejoin="round"/>
<path d="M311.725 23.7295L301.085 34.3284M305.629 29.8018L308.954 33.114L312.833 29.2498L309.508 25.9376" stroke="#F19F00" stroke-width="4" stroke-linecap="round" stroke-linejoin="round"/>
<path d="M226.15 26.4802H229.883L228.794 34.1892L234.161 26.4802H238.322L232.217 34.4604C232.891 36.0874 233.578 37.6886 234.278 39.264C235.004 40.8394 235.717 42.4406 236.417 44.0676H231.944L228.6 35.5064L227.394 44.0676H223.661L226.15 26.4802ZM241.072 30.3541H244.261L244.105 32.0973H244.183C244.313 32.0199 244.494 31.8649 244.727 31.6325C244.987 31.4 245.311 31.1676 245.7 30.9352C246.659 30.3412 247.605 30.0442 248.538 30.0442C249.835 30.0442 250.69 30.4316 251.105 31.2064C251.52 31.9811 251.611 33.182 251.377 34.8091L250.055 44.0676H246.516L247.644 35.7C247.774 34.7187 247.761 34.0601 247.605 33.7244C247.45 33.3628 247.1 33.182 246.555 33.182C246.088 33.182 245.661 33.3241 245.272 33.6081C244.546 34.1763 244.144 34.5379 244.066 34.6929L242.744 44.0676H239.127L241.072 30.3541ZM258.094 41.782C258.871 41.782 259.481 41.4204 259.921 40.6973C260.388 39.9742 260.725 38.8121 260.933 37.2109C261.166 35.5838 261.153 34.4217 260.894 33.7244C260.634 33.0271 260.129 32.6784 259.377 32.6784C258.625 32.6784 258.029 33.0271 257.588 33.7244C257.147 34.4217 256.81 35.5838 256.577 37.2109C256.37 38.8379 256.383 40.0129 256.616 40.7361C256.849 41.4334 257.342 41.782 258.094 41.782ZM264.744 33.918C264.899 34.822 264.873 35.9196 264.666 37.2109C264.484 38.5021 264.186 39.5997 263.771 40.5037C263.383 41.4075 262.89 42.1565 262.294 42.7505C261.179 43.861 259.662 44.4163 257.744 44.4163C254.892 44.4163 253.245 43.1121 252.805 40.5037C252.649 39.5997 252.675 38.4892 252.883 37.1721C253.168 34.7445 253.958 32.9238 255.255 31.7099C256.421 30.5994 257.912 30.0442 259.727 30.0442C262.631 30.0442 264.303 31.3355 264.744 33.918ZM275.471 33.2595C274.615 32.9754 273.889 32.8334 273.293 32.8334C272.386 32.8334 271.673 33.1949 271.154 33.918C270.636 34.6153 270.26 35.7517 270.026 37.3271C269.819 38.8766 269.884 39.9742 270.221 40.6199C270.584 41.2397 271.089 41.5496 271.738 41.5496C272.412 41.5496 272.995 41.4592 273.488 41.2784C273.98 41.0718 274.317 40.9427 274.499 40.891L275.004 43.1379C273.578 43.9902 272.217 44.4163 270.921 44.4163C267.188 44.4163 265.645 42.079 266.293 37.4045C266.941 32.4976 269.236 30.0442 273.176 30.0442C274.291 30.0442 275.328 30.225 276.288 30.5865L275.471 33.2595ZM279.988 24.8532L283.644 24.3496L281.972 36.2811L286.289 30.3541H290.372L285.044 36.4748L288.855 44.0676H284.577L281.777 37.5207L280.883 44.0676H277.266L279.988 24.8532Z" fill="#F19F00"/>
<path d="M263.04 44.9664L265.964 44.5635L264.627 54.1087L268.08 49.3671H271.347L267.084 54.2637L270.133 60.3379H266.711L264.471 55.1005L263.756 60.3379H260.862L263.04 44.9664ZM273.469 49.3671H276.02L275.896 50.7617H275.958C276.062 50.6997 276.207 50.5757 276.394 50.3898C276.601 50.2039 276.86 50.0179 277.171 49.832C277.939 49.3568 278.696 49.1192 279.443 49.1192C280.48 49.1192 281.164 49.4291 281.496 50.0489C281.828 50.6687 281.9 51.6294 281.714 52.931L280.656 60.3379H277.825L278.727 53.6439C278.831 52.8588 278.82 52.3319 278.696 52.0633C278.571 51.7741 278.291 51.6294 277.856 51.6294C277.483 51.6294 277.14 51.7431 276.829 51.9703C276.248 52.4249 275.927 52.7141 275.865 52.8381L274.807 60.3379H271.914L273.469 49.3671ZM287.087 58.5094C287.709 58.5094 288.196 58.2202 288.549 57.6417C288.922 57.0632 289.192 56.1334 289.358 54.8525C289.544 53.5509 289.534 52.6212 289.327 52.0633C289.119 51.5055 288.715 51.2266 288.113 51.2266C287.512 51.2266 287.035 51.5055 286.682 52.0633C286.33 52.6212 286.06 53.5509 285.873 54.8525C285.707 56.1541 285.718 57.0942 285.904 57.6727C286.091 58.2305 286.485 58.5094 287.087 58.5094ZM292.407 52.2183C292.531 52.9414 292.511 53.8195 292.344 54.8525C292.199 55.8856 291.961 56.7636 291.629 57.4867C291.318 58.2099 290.924 58.809 290.447 59.2842C289.555 60.1727 288.342 60.6168 286.807 60.6168C284.525 60.6168 283.208 59.5734 282.855 57.4867C282.731 56.7636 282.752 55.8752 282.918 54.8215C283.146 52.8794 283.779 51.4228 284.815 50.4518C285.749 49.5634 286.941 49.1192 288.393 49.1192C290.716 49.1192 292.054 50.1522 292.407 52.2183ZM300.988 51.6914C300.304 51.4642 299.723 51.3505 299.246 51.3505C298.52 51.3505 297.95 51.6398 297.535 52.2183C297.12 52.7761 296.82 53.6852 296.633 54.9455C296.467 56.1851 296.519 57.0632 296.788 57.5797C297.079 58.0756 297.484 58.3235 298.002 58.3235C298.541 58.3235 299.008 58.2512 299.402 58.1066C299.796 57.9413 300.065 57.838 300.211 57.7967L300.615 59.5941C299.474 60.2759 298.385 60.6168 297.348 60.6168C294.362 60.6168 293.128 58.747 293.646 55.0075C294.165 51.0819 296 49.1192 299.153 49.1192C300.045 49.1192 300.874 49.2638 301.641 49.553L300.988 51.6914ZM304.603 44.9664L307.527 44.5635L306.189 54.1087L309.642 49.3671H312.909L308.647 54.2637L311.696 60.3379H308.273L306.033 55.1005L305.318 60.3379H302.425L304.603 44.9664Z" fill="#F19F00"/>
</g>
<path d="M381.888 46.208C381.088 46.208 380.411 46.048 379.856 45.728C379.312 45.3973 378.853 44.9067 378.48 44.256L379.776 43.312C380.021 43.7707 380.304 44.1013 380.624 44.304C380.944 44.496 381.296 44.592 381.68 44.592C382.288 44.592 382.736 44.416 383.024 44.064C383.312 43.7013 383.456 43.088 383.456 42.224V34.224H385.312V42.4C385.312 42.9227 385.243 43.4187 385.104 43.888C384.976 44.3467 384.773 44.752 384.496 45.104C384.219 45.4453 383.861 45.7173 383.424 45.92C382.997 46.112 382.485 46.208 381.888 46.208ZM391.709 46.208C391.165 46.208 390.642 46.1067 390.141 45.904C389.64 45.6907 389.197 45.392 388.813 45.008C388.44 44.6133 388.136 44.1333 387.901 43.568C387.677 42.992 387.565 42.3413 387.565 41.616C387.565 40.88 387.677 40.224 387.901 39.648C388.136 39.072 388.44 38.5867 388.813 38.192C389.197 37.7973 389.64 37.4987 390.141 37.296C390.642 37.0827 391.165 36.976 391.709 36.976C392.253 36.976 392.776 37.0827 393.277 37.296C393.778 37.4987 394.216 37.7973 394.589 38.192C394.973 38.5867 395.277 39.072 395.501 39.648C395.736 40.224 395.853 40.88 395.853 41.616C395.853 42.3413 395.736 42.992 395.501 43.568C395.277 44.1333 394.973 44.6133 394.589 45.008C394.216 45.392 393.778 45.6907 393.277 45.904C392.776 46.1067 392.253 46.208 391.709 46.208ZM391.709 44.704C392.061 44.704 392.376 44.6293 392.653 44.48C392.93 44.3307 393.165 44.1227 393.357 43.856C393.549 43.5893 393.698 43.264 393.805 42.88C393.912 42.496 393.965 42.0747 393.965 41.616C393.965 40.6773 393.762 39.9253 393.357 39.36C392.962 38.784 392.413 38.496 391.709 38.496C391.005 38.496 390.456 38.784 390.061 39.36C389.666 39.9253 389.469 40.6773 389.469 41.616C389.469 42.0747 389.522 42.496 389.629 42.88C389.736 43.264 389.885 43.5893 390.077 43.856C390.269 44.1227 390.504 44.3307 390.781 44.48C391.058 44.6293 391.368 44.704 391.709 44.704ZM402.097 46.208C401.692 46.208 401.276 46.112 400.849 45.92C400.433 45.728 400.038 45.4507 399.665 45.088H399.617L399.441 46H398.001V33.248H399.825V36.624L399.777 38.128C400.15 37.7973 400.561 37.5253 401.009 37.312C401.457 37.088 401.921 36.976 402.401 36.976C402.956 36.976 403.446 37.0827 403.873 37.296C404.31 37.5093 404.678 37.8133 404.977 38.208C405.276 38.592 405.5 39.0613 405.649 39.616C405.809 40.1707 405.889 40.784 405.889 41.456C405.889 42.2027 405.782 42.8747 405.569 43.472C405.366 44.0587 405.089 44.5547 404.737 44.96C404.385 45.3653 403.98 45.6747 403.521 45.888C403.073 46.1013 402.598 46.208 402.097 46.208ZM401.745 44.688C402.385 44.688 402.918 44.416 403.345 43.872C403.772 43.3173 403.985 42.5227 403.985 41.488C403.985 40.5493 403.825 39.8187 403.505 39.296C403.185 38.7733 402.657 38.512 401.921 38.512C401.238 38.512 400.54 38.8693 399.825 39.584V43.888C400.166 44.1867 400.502 44.3947 400.833 44.512C401.164 44.6293 401.468 44.688 401.745 44.688ZM410.417 46.208C409.809 46.208 409.211 46.096 408.625 45.872C408.038 45.6373 407.531 45.344 407.105 44.992L407.969 43.808C408.363 44.1173 408.758 44.3627 409.153 44.544C409.547 44.7253 409.985 44.816 410.465 44.816C411.009 44.816 411.403 44.704 411.649 44.48C411.894 44.256 412.017 43.9733 412.017 43.632C412.017 43.4293 411.958 43.2533 411.841 43.104C411.734 42.9547 411.585 42.8267 411.393 42.72C411.211 42.6027 411.003 42.496 410.769 42.4C410.545 42.304 410.31 42.208 410.065 42.112C409.777 41.9947 409.483 41.8667 409.185 41.728C408.886 41.5893 408.614 41.424 408.369 41.232C408.134 41.0293 407.937 40.7947 407.777 40.528C407.627 40.2507 407.553 39.9253 407.553 39.552C407.553 39.1787 407.622 38.8373 407.761 38.528C407.91 38.2187 408.118 37.9467 408.385 37.712C408.651 37.4773 408.977 37.296 409.361 37.168C409.755 37.04 410.193 36.976 410.673 36.976C411.281 36.976 411.819 37.0827 412.289 37.296C412.758 37.4987 413.174 37.7387 413.537 38.016L412.673 39.152C412.363 38.928 412.049 38.7467 411.729 38.608C411.419 38.4587 411.078 38.384 410.705 38.384C410.225 38.384 409.867 38.4907 409.633 38.704C409.409 38.9067 409.297 39.1627 409.297 39.472C409.297 39.664 409.35 39.8293 409.457 39.968C409.563 40.096 409.702 40.2133 409.873 40.32C410.043 40.4267 410.241 40.5227 410.465 40.608C410.699 40.6933 410.934 40.7787 411.169 40.864C411.478 40.9813 411.787 41.1093 412.097 41.248C412.406 41.3867 412.683 41.5573 412.929 41.76C413.174 41.952 413.371 42.192 413.521 42.48C413.681 42.768 413.761 43.12 413.761 43.536C413.761 43.8987 413.686 44.2453 413.537 44.576C413.398 44.896 413.185 45.1787 412.897 45.424C412.619 45.6693 412.273 45.8613 411.857 46C411.441 46.1387 410.961 46.208 410.417 46.208Z" fill="black"/>
<path d="M480.552 34.224H487.512V35.776H482.408V39.056H486.728V40.624H482.408V44.432H487.688V46H480.552V34.224ZM492.854 46.208C491.723 46.208 490.833 45.8187 490.182 45.04C489.542 44.2507 489.222 43.1093 489.222 41.616C489.222 40.8907 489.323 40.2453 489.526 39.68C489.739 39.104 490.022 38.6187 490.374 38.224C490.726 37.8187 491.126 37.5093 491.574 37.296C492.033 37.0827 492.507 36.976 492.998 36.976C493.51 36.976 493.942 37.0667 494.294 37.248C494.646 37.4187 495.003 37.6587 495.366 37.968L495.286 36.512V33.248H497.126V46H495.622L495.462 45.008H495.414C495.083 45.3493 494.699 45.6373 494.262 45.872C493.835 46.096 493.366 46.208 492.854 46.208ZM493.286 44.688C494.001 44.688 494.667 44.3307 495.286 43.616V39.312C494.955 39.0133 494.63 38.8053 494.31 38.688C494.001 38.5707 493.681 38.512 493.35 38.512C493.041 38.512 492.747 38.5867 492.47 38.736C492.203 38.8747 491.969 39.0773 491.766 39.344C491.574 39.6 491.419 39.92 491.302 40.304C491.185 40.6773 491.126 41.104 491.126 41.584C491.126 42.5867 491.307 43.3547 491.67 43.888C492.043 44.4213 492.582 44.688 493.286 44.688ZM502.452 46.208C501.513 46.208 500.831 45.9147 500.404 45.328C499.977 44.7307 499.764 43.8667 499.764 42.736V37.2H501.604V42.512C501.604 43.28 501.716 43.824 501.94 44.144C502.175 44.464 502.553 44.624 503.076 44.624C503.481 44.624 503.844 44.5227 504.164 44.32C504.484 44.1067 504.825 43.7707 505.188 43.312V37.2H507.028V46H505.524L505.38 44.672H505.332C504.927 45.152 504.495 45.5307 504.036 45.808C503.588 46.0747 503.06 46.208 502.452 46.208ZM513.398 46.208C512.801 46.208 512.246 46.1067 511.734 45.904C511.222 45.6907 510.774 45.392 510.39 45.008C510.017 44.6133 509.723 44.1333 509.51 43.568C509.297 42.992 509.19 42.3413 509.19 41.616C509.19 40.88 509.307 40.224 509.542 39.648C509.777 39.072 510.091 38.5867 510.486 38.192C510.891 37.7973 511.355 37.4987 511.878 37.296C512.411 37.0827 512.966 36.976 513.542 36.976C514.118 36.976 514.609 37.0773 515.014 37.28C515.43 37.472 515.798 37.7067 516.118 37.984L515.206 39.184C514.961 38.9707 514.71 38.8053 514.454 38.688C514.209 38.56 513.931 38.496 513.622 38.496C513.259 38.496 512.923 38.5707 512.614 38.72C512.305 38.8693 512.038 39.0827 511.814 39.36C511.59 39.6267 511.414 39.952 511.286 40.336C511.158 40.72 511.094 41.1467 511.094 41.616C511.094 42.0747 511.153 42.496 511.27 42.88C511.398 43.264 511.569 43.5893 511.782 43.856C511.995 44.1227 512.257 44.3307 512.566 44.48C512.875 44.6293 513.211 44.704 513.574 44.704C513.947 44.704 514.294 44.6293 514.614 44.48C514.934 44.32 515.227 44.128 515.494 43.904L516.246 45.12C515.841 45.4827 515.393 45.7547 514.902 45.936C514.411 46.1173 513.91 46.208 513.398 46.208ZM519.972 46.208C519.588 46.208 519.236 46.1493 518.916 46.032C518.606 45.9147 518.334 45.744 518.1 45.52C517.876 45.296 517.7 45.0293 517.572 44.72C517.444 44.4 517.38 44.048 517.38 43.664C517.38 43.1733 517.47 42.704 517.652 42.256C517.833 41.808 518.153 41.4453 518.612 41.168C519.06 40.9227 519.614 40.752 520.276 40.656C520.948 40.5493 521.737 40.464 522.644 40.4C522.644 40.144 522.617 39.8987 522.564 39.664C522.51 39.4293 522.42 39.2267 522.292 39.056C522.164 38.8747 521.988 38.736 521.764 38.64C521.55 38.5333 521.284 38.48 520.964 38.48C520.484 38.48 520.014 38.576 519.556 38.768C519.097 38.9493 518.681 39.1627 518.308 39.408L517.764 38.064C518.222 37.776 518.745 37.5253 519.332 37.312C519.929 37.088 520.58 36.976 521.284 36.976C522.382 36.976 523.188 37.3013 523.7 37.952C524.222 38.592 524.484 39.5093 524.484 40.704V46H522.98L522.82 45.04H522.772C522.366 45.3813 521.934 45.664 521.476 45.888C521.017 46.1013 520.516 46.208 519.972 46.208ZM520.532 44.752C520.916 44.752 521.273 44.672 521.604 44.512C521.934 44.352 522.281 44.1067 522.644 43.776V41.6C522.217 41.6533 521.844 41.696 521.524 41.728C521.204 41.76 520.921 41.8027 520.676 41.856C520.43 41.8987 520.217 41.9573 520.036 42.032C519.854 42.096 519.694 42.192 519.556 42.32C519.321 42.5333 519.193 42.7467 519.172 42.96C519.161 43.1627 519.156 43.3547 519.156 43.536C519.156 43.984 519.284 44.2987 519.54 44.48C519.806 44.6613 520.137 44.752 520.532 44.752ZM529.789 46.208C529.298 46.208 528.882 46.1333 528.541 45.984C528.2 45.8347 527.922 45.6267 527.709 45.36C527.496 45.0933 527.341 44.768 527.245 44.384C527.16 44 527.117 43.5787 527.117 43.12V38.672H525.837V37.296L527.197 37.2L527.405 34.768H528.957V37.2H531.245V38.672H528.957V43.136C528.957 43.68 529.053 44.0853 529.245 44.352C529.448 44.608 529.778 44.736 530.237 44.736C530.386 44.736 530.546 44.7147 530.717 44.672C530.898 44.6293 531.053 44.5813 531.181 44.528L531.517 45.888C531.272 45.9733 531 46.048 530.701 46.112C530.413 46.176 530.109 46.208 529.789 46.208ZM534.821 33.472V35.456H532.933V33.472H534.821ZM532.949 46V37.2H534.773V46H532.949ZM540.834 46.208C540.29 46.208 539.767 46.1067 539.266 45.904C538.765 45.6907 538.322 45.392 537.938 45.008C537.565 44.6133 537.261 44.1333 537.026 43.568C536.802 42.992 536.69 42.3413 536.69 41.616C536.69 40.88 536.802 40.224 537.026 39.648C537.261 39.072 537.565 38.5867 537.938 38.192C538.322 37.7973 538.765 37.4987 539.266 37.296C539.767 37.0827 540.29 36.976 540.834 36.976C541.378 36.976 541.901 37.0827 542.402 37.296C542.903 37.4987 543.341 37.7973 543.714 38.192C544.098 38.5867 544.402 39.072 544.626 39.648C544.861 40.224 544.978 40.88 544.978 41.616C544.978 42.3413 544.861 42.992 544.626 43.568C544.402 44.1333 544.098 44.6133 543.714 45.008C543.341 45.392 542.903 45.6907 542.402 45.904C541.901 46.1067 541.378 46.208 540.834 46.208ZM540.834 44.704C541.186 44.704 541.501 44.6293 541.778 44.48C542.055 44.3307 542.29 44.1227 542.482 43.856C542.674 43.5893 542.823 43.264 542.93 42.88C543.037 42.496 543.09 42.0747 543.09 41.616C543.09 40.6773 542.887 39.9253 542.482 39.36C542.087 38.784 541.538 38.496 540.834 38.496C540.13 38.496 539.581 38.784 539.186 39.36C538.791 39.9253 538.594 40.6773 538.594 41.616C538.594 42.0747 538.647 42.496 538.754 42.88C538.861 43.264 539.01 43.5893 539.202 43.856C539.394 44.1227 539.629 44.3307 539.906 44.48C540.183 44.6293 540.493 44.704 540.834 44.704ZM547.126 37.2H548.63L548.774 38.416H548.822C549.227 38.0213 549.665 37.6853 550.134 37.408C550.603 37.12 551.137 36.976 551.734 36.976C552.673 36.976 553.355 37.2747 553.782 37.872C554.219 38.4693 554.438 39.3333 554.438 40.464V46H552.598V40.688C552.598 39.92 552.481 39.376 552.246 39.056C552.011 38.7253 551.633 38.56 551.11 38.56C550.705 38.56 550.342 38.6613 550.022 38.864C549.702 39.0667 549.345 39.3653 548.95 39.76V46H547.126V37.2ZM559.51 46.208C558.902 46.208 558.305 46.096 557.718 45.872C557.132 45.6373 556.625 45.344 556.198 44.992L557.062 43.808C557.457 44.1173 557.852 44.3627 558.246 44.544C558.641 44.7253 559.078 44.816 559.558 44.816C560.102 44.816 560.497 44.704 560.742 44.48C560.988 44.256 561.11 43.9733 561.11 43.632C561.11 43.4293 561.052 43.2533 560.934 43.104C560.828 42.9547 560.678 42.8267 560.486 42.72C560.305 42.6027 560.097 42.496 559.862 42.4C559.638 42.304 559.404 42.208 559.158 42.112C558.87 41.9947 558.577 41.8667 558.278 41.728C557.98 41.5893 557.708 41.424 557.462 41.232C557.228 41.0293 557.03 40.7947 556.87 40.528C556.721 40.2507 556.646 39.9253 556.646 39.552C556.646 39.1787 556.716 38.8373 556.854 38.528C557.004 38.2187 557.212 37.9467 557.478 37.712C557.745 37.4773 558.07 37.296 558.454 37.168C558.849 37.04 559.286 36.976 559.766 36.976C560.374 36.976 560.913 37.0827 561.382 37.296C561.852 37.4987 562.268 37.7387 562.63 38.016L561.766 39.152C561.457 38.928 561.142 38.7467 560.822 38.608C560.513 38.4587 560.172 38.384 559.798 38.384C559.318 38.384 558.961 38.4907 558.726 38.704C558.502 38.9067 558.39 39.1627 558.39 39.472C558.39 39.664 558.444 39.8293 558.55 39.968C558.657 40.096 558.796 40.2133 558.966 40.32C559.137 40.4267 559.334 40.5227 559.558 40.608C559.793 40.6933 560.028 40.7787 560.262 40.864C560.572 40.9813 560.881 41.1093 561.19 41.248C561.5 41.3867 561.777 41.5573 562.022 41.76C562.268 41.952 562.465 42.192 562.614 42.48C562.774 42.768 562.854 43.12 562.854 43.536C562.854 43.8987 562.78 44.2453 562.63 44.576C562.492 44.896 562.278 45.1787 561.99 45.424C561.713 45.6693 561.366 45.8613 560.95 46C560.534 46.1387 560.054 46.208 559.51 46.208Z" fill="black"/>
<path d="M633.872 46.208C633.221 46.208 632.624 46.1173 632.08 45.936C631.547 45.744 631.088 45.44 630.704 45.024C630.32 44.5973 630.021 44.0533 629.808 43.392C629.595 42.72 629.488 41.904 629.488 40.944V34.224H631.344V41.072C631.344 41.7333 631.408 42.2933 631.536 42.752C631.664 43.2 631.84 43.5627 632.064 43.84C632.288 44.1067 632.555 44.2987 632.864 44.416C633.173 44.5333 633.509 44.592 633.872 44.592C634.245 44.592 634.587 44.5333 634.896 44.416C635.216 44.2987 635.488 44.1067 635.712 43.84C635.947 43.5627 636.128 43.2 636.256 42.752C636.384 42.2933 636.448 41.7333 636.448 41.072V34.224H638.24V40.944C638.24 41.904 638.133 42.72 637.92 43.392C637.717 44.0533 637.424 44.5973 637.04 45.024C636.656 45.44 636.197 45.744 635.664 45.936C635.131 46.1173 634.533 46.208 633.872 46.208ZM643.417 46.208C642.809 46.208 642.211 46.096 641.625 45.872C641.038 45.6373 640.531 45.344 640.105 44.992L640.969 43.808C641.363 44.1173 641.758 44.3627 642.153 44.544C642.547 44.7253 642.985 44.816 643.465 44.816C644.009 44.816 644.403 44.704 644.649 44.48C644.894 44.256 645.017 43.9733 645.017 43.632C645.017 43.4293 644.958 43.2533 644.841 43.104C644.734 42.9547 644.585 42.8267 644.393 42.72C644.211 42.6027 644.003 42.496 643.769 42.4C643.545 42.304 643.31 42.208 643.065 42.112C642.777 41.9947 642.483 41.8667 642.185 41.728C641.886 41.5893 641.614 41.424 641.369 41.232C641.134 41.0293 640.937 40.7947 640.777 40.528C640.627 40.2507 640.553 39.9253 640.553 39.552C640.553 39.1787 640.622 38.8373 640.761 38.528C640.91 38.2187 641.118 37.9467 641.385 37.712C641.651 37.4773 641.977 37.296 642.361 37.168C642.755 37.04 643.193 36.976 643.673 36.976C644.281 36.976 644.819 37.0827 645.289 37.296C645.758 37.4987 646.174 37.7387 646.537 38.016L645.673 39.152C645.363 38.928 645.049 38.7467 644.729 38.608C644.419 38.4587 644.078 38.384 643.705 38.384C643.225 38.384 642.867 38.4907 642.633 38.704C642.409 38.9067 642.297 39.1627 642.297 39.472C642.297 39.664 642.35 39.8293 642.457 39.968C642.563 40.096 642.702 40.2133 642.873 40.32C643.043 40.4267 643.241 40.5227 643.465 40.608C643.699 40.6933 643.934 40.7787 644.169 40.864C644.478 40.9813 644.787 41.1093 645.097 41.248C645.406 41.3867 645.683 41.5573 645.929 41.76C646.174 41.952 646.371 42.192 646.521 42.48C646.681 42.768 646.761 43.12 646.761 43.536C646.761 43.8987 646.686 44.2453 646.537 44.576C646.398 44.896 646.185 45.1787 645.897 45.424C645.619 45.6693 645.273 45.8613 644.857 46C644.441 46.1387 643.961 46.208 643.417 46.208ZM650.784 46.208C650.4 46.208 650.048 46.1493 649.728 46.032C649.419 45.9147 649.147 45.744 648.912 45.52C648.688 45.296 648.512 45.0293 648.384 44.72C648.256 44.4 648.192 44.048 648.192 43.664C648.192 43.1733 648.283 42.704 648.464 42.256C648.645 41.808 648.965 41.4453 649.424 41.168C649.872 40.9227 650.427 40.752 651.088 40.656C651.76 40.5493 652.549 40.464 653.456 40.4C653.456 40.144 653.429 39.8987 653.376 39.664C653.323 39.4293 653.232 39.2267 653.104 39.056C652.976 38.8747 652.8 38.736 652.576 38.64C652.363 38.5333 652.096 38.48 651.776 38.48C651.296 38.48 650.827 38.576 650.368 38.768C649.909 38.9493 649.493 39.1627 649.12 39.408L648.576 38.064C649.035 37.776 649.557 37.5253 650.144 37.312C650.741 37.088 651.392 36.976 652.096 36.976C653.195 36.976 654 37.3013 654.512 37.952C655.035 38.592 655.296 39.5093 655.296 40.704V46H653.792L653.632 45.04H653.584C653.179 45.3813 652.747 45.664 652.288 45.888C651.829 46.1013 651.328 46.208 650.784 46.208ZM651.344 44.752C651.728 44.752 652.085 44.672 652.416 44.512C652.747 44.352 653.093 44.1067 653.456 43.776V41.6C653.029 41.6533 652.656 41.696 652.336 41.728C652.016 41.76 651.733 41.8027 651.488 41.856C651.243 41.8987 651.029 41.9573 650.848 42.032C650.667 42.096 650.507 42.192 650.368 42.32C650.133 42.5333 650.005 42.7467 649.984 42.96C649.973 43.1627 649.968 43.3547 649.968 43.536C649.968 43.984 650.096 44.2987 650.352 44.48C650.619 44.6613 650.949 44.752 651.344 44.752ZM660.915 49.952C660.393 49.952 659.907 49.904 659.459 49.808C659.011 49.712 658.622 49.5627 658.291 49.36C657.971 49.168 657.721 48.928 657.539 48.64C657.358 48.352 657.267 48.016 657.267 47.632C657.267 47.2587 657.379 46.9067 657.603 46.576C657.827 46.2453 658.142 45.9573 658.547 45.712V45.632C658.323 45.4933 658.131 45.3067 657.971 45.072C657.822 44.8373 657.747 44.5387 657.747 44.176C657.747 43.8347 657.849 43.5253 658.051 43.248C658.254 42.96 658.478 42.7253 658.723 42.544V42.48C658.425 42.2453 658.158 41.9307 657.923 41.536C657.689 41.1307 657.571 40.6667 657.571 40.144C657.571 39.6427 657.662 39.2 657.843 38.816C658.035 38.4213 658.286 38.0907 658.595 37.824C658.905 37.5467 659.262 37.3387 659.667 37.2C660.083 37.0507 660.521 36.976 660.979 36.976C661.225 36.976 661.454 36.9973 661.667 37.04C661.891 37.0827 662.089 37.136 662.259 37.2H665.379V38.576H663.699C663.87 38.7573 664.009 38.9867 664.115 39.264C664.222 39.5413 664.275 39.8507 664.275 40.192C664.275 40.672 664.19 41.0987 664.019 41.472C663.849 41.8453 663.614 42.1653 663.315 42.432C663.017 42.688 662.665 42.8853 662.259 43.024C661.865 43.152 661.438 43.216 660.979 43.216C660.617 43.216 660.206 43.1253 659.747 42.944C659.598 43.072 659.481 43.2053 659.395 43.344C659.31 43.4827 659.267 43.6587 659.267 43.872C659.267 44.1387 659.369 44.352 659.571 44.512C659.785 44.6613 660.174 44.736 660.739 44.736H662.355C663.422 44.736 664.217 44.9013 664.739 45.232C665.262 45.5627 665.523 46.112 665.523 46.88C665.523 47.3067 665.417 47.7067 665.203 48.08C664.99 48.4533 664.681 48.7787 664.275 49.056C663.881 49.3333 663.395 49.552 662.819 49.712C662.254 49.872 661.619 49.952 660.915 49.952ZM660.979 42.032C661.438 42.032 661.827 41.8667 662.147 41.536C662.478 41.1947 662.643 40.7307 662.643 40.144C662.643 39.536 662.483 39.072 662.163 38.752C661.854 38.432 661.459 38.272 660.979 38.272C660.499 38.272 660.099 38.432 659.779 38.752C659.47 39.072 659.315 39.536 659.315 40.144C659.315 40.7307 659.475 41.1947 659.795 41.536C660.126 41.8667 660.521 42.032 660.979 42.032ZM661.187 48.736C661.571 48.736 661.918 48.6933 662.227 48.608C662.547 48.5227 662.819 48.4053 663.043 48.256C663.267 48.1173 663.438 47.952 663.555 47.76C663.683 47.5787 663.747 47.3813 663.747 47.168C663.747 46.7947 663.609 46.5387 663.331 46.4C663.054 46.272 662.643 46.208 662.099 46.208H660.771C660.569 46.208 660.371 46.1973 660.179 46.176C659.987 46.1547 659.79 46.1227 659.587 46.08C659.321 46.272 659.129 46.4747 659.011 46.688C658.894 46.912 658.835 47.136 658.835 47.36C658.835 47.808 659.043 48.1493 659.459 48.384C659.875 48.6187 660.451 48.736 661.187 48.736ZM670.556 46.208C669.958 46.208 669.398 46.1067 668.876 45.904C668.353 45.6907 667.9 45.392 667.516 45.008C667.132 44.6133 666.828 44.1333 666.604 43.568C666.38 42.992 666.268 42.3413 666.268 41.616C666.268 40.8907 666.38 40.2453 666.604 39.68C666.828 39.104 667.126 38.6187 667.5 38.224C667.873 37.8187 668.3 37.5093 668.78 37.296C669.27 37.0827 669.772 36.976 670.284 36.976C670.87 36.976 671.382 37.0773 671.82 37.28C672.268 37.4827 672.641 37.7653 672.94 38.128C673.249 38.4907 673.478 38.928 673.628 39.44C673.788 39.952 673.868 40.5227 673.868 41.152C673.868 41.344 673.857 41.52 673.836 41.68C673.825 41.8293 673.809 41.9627 673.788 42.08H668.076C668.15 42.9227 668.428 43.584 668.908 44.064C669.398 44.5333 670.028 44.768 670.796 44.768C671.19 44.768 671.558 44.7147 671.9 44.608C672.241 44.4907 672.572 44.3253 672.892 44.112L673.532 45.28C673.126 45.5573 672.673 45.7813 672.172 45.952C671.67 46.1227 671.132 46.208 670.556 46.208ZM672.284 40.816C672.284 40.048 672.113 39.456 671.772 39.04C671.441 38.624 670.956 38.416 670.316 38.416C670.049 38.416 669.788 38.4693 669.532 38.576C669.276 38.6827 669.046 38.8373 668.844 39.04C668.641 39.2427 668.47 39.4933 668.332 39.792C668.193 40.0907 668.102 40.432 668.06 40.816H672.284ZM684.493 46.208C683.703 46.208 682.973 46.0747 682.301 45.808C681.639 45.5307 681.069 45.136 680.589 44.624C680.109 44.1013 679.73 43.4667 679.453 42.72C679.186 41.9627 679.053 41.104 679.053 40.144C679.053 39.184 679.191 38.3253 679.469 37.568C679.746 36.8 680.13 36.1547 680.621 35.632C681.111 35.0987 681.693 34.6933 682.365 34.416C683.037 34.1387 683.762 34 684.541 34C684.957 34 685.341 34.0427 685.693 34.128C686.045 34.2133 686.365 34.3253 686.653 34.464C686.941 34.6027 687.197 34.7627 687.421 34.944C687.655 35.1147 687.863 35.296 688.045 35.488L687.037 36.672C686.749 36.3733 686.413 36.1227 686.029 35.92C685.655 35.7173 685.181 35.616 684.605 35.616C684.061 35.616 683.565 35.7227 683.117 35.936C682.669 36.1387 682.285 36.432 681.965 36.816C681.645 37.2 681.394 37.6693 681.213 38.224C681.042 38.768 680.957 39.3867 680.957 40.08C680.957 40.784 681.037 41.4133 681.197 41.968C681.357 42.5227 681.591 42.9973 681.901 43.392C682.221 43.776 682.61 44.0747 683.069 44.288C683.538 44.4907 684.077 44.592 684.685 44.592C685.047 44.592 685.394 44.544 685.725 44.448C686.055 44.3413 686.327 44.1973 686.541 44.016V41.248H684.205V39.728H688.221V44.832C687.826 45.2267 687.309 45.5573 686.669 45.824C686.029 46.08 685.303 46.208 684.493 46.208ZM693.311 46.208C692.373 46.208 691.69 45.9147 691.263 45.328C690.837 44.7307 690.623 43.8667 690.623 42.736V37.2H692.463V42.512C692.463 43.28 692.575 43.824 692.799 44.144C693.034 44.464 693.413 44.624 693.935 44.624C694.341 44.624 694.703 44.5227 695.023 44.32C695.343 44.1067 695.685 43.7707 696.047 43.312V37.2H697.887V46H696.383L696.239 44.672H696.191C695.786 45.152 695.354 45.5307 694.895 45.808C694.447 46.0747 693.919 46.208 693.311 46.208ZM702.305 33.472V35.456H700.417V33.472H702.305ZM700.433 46V37.2H702.257V46H700.433ZM707.838 46.208C706.708 46.208 705.817 45.8187 705.166 45.04C704.526 44.2507 704.206 43.1093 704.206 41.616C704.206 40.8907 704.308 40.2453 704.51 39.68C704.724 39.104 705.006 38.6187 705.358 38.224C705.71 37.8187 706.11 37.5093 706.558 37.296C707.017 37.0827 707.492 36.976 707.982 36.976C708.494 36.976 708.926 37.0667 709.278 37.248C709.63 37.4187 709.988 37.6587 710.35 37.968L710.27 36.512V33.248H712.11V46H710.606L710.446 45.008H710.398C710.068 45.3493 709.684 45.6373 709.246 45.872C708.82 46.096 708.35 46.208 707.838 46.208ZM708.27 44.688C708.985 44.688 709.652 44.3307 710.27 43.616V39.312C709.94 39.0133 709.614 38.8053 709.294 38.688C708.985 38.5707 708.665 38.512 708.334 38.512C708.025 38.512 707.732 38.5867 707.454 38.736C707.188 38.8747 706.953 39.0773 706.75 39.344C706.558 39.6 706.404 39.92 706.286 40.304C706.169 40.6773 706.11 41.104 706.11 41.584C706.11 42.5867 706.292 43.3547 706.654 43.888C707.028 44.4213 707.566 44.688 708.27 44.688ZM718.524 46.208C717.927 46.208 717.367 46.1067 716.844 45.904C716.322 45.6907 715.868 45.392 715.484 45.008C715.1 44.6133 714.796 44.1333 714.572 43.568C714.348 42.992 714.236 42.3413 714.236 41.616C714.236 40.8907 714.348 40.2453 714.572 39.68C714.796 39.104 715.095 38.6187 715.468 38.224C715.842 37.8187 716.268 37.5093 716.748 37.296C717.239 37.0827 717.74 36.976 718.252 36.976C718.839 36.976 719.351 37.0773 719.788 37.28C720.236 37.4827 720.61 37.7653 720.908 38.128C721.218 38.4907 721.447 38.928 721.596 39.44C721.756 39.952 721.836 40.5227 721.836 41.152C721.836 41.344 721.826 41.52 721.804 41.68C721.794 41.8293 721.778 41.9627 721.756 42.08H716.044C716.119 42.9227 716.396 43.584 716.876 44.064C717.367 44.5333 717.996 44.768 718.764 44.768C719.159 44.768 719.527 44.7147 719.868 44.608C720.21 44.4907 720.54 44.3253 720.86 44.112L721.5 45.28C721.095 45.5573 720.642 45.7813 720.14 45.952C719.639 46.1227 719.1 46.208 718.524 46.208ZM720.252 40.816C720.252 40.048 720.082 39.456 719.74 39.04C719.41 38.624 718.924 38.416 718.284 38.416C718.018 38.416 717.756 38.4693 717.5 38.576C717.244 38.6827 717.015 38.8373 716.812 39.04C716.61 39.2427 716.439 39.4933 716.3 39.792C716.162 40.0907 716.071 40.432 716.028 40.816H720.252Z" fill="#F19F00"/>
<rect width="87" height="20" transform="translate(1130 30)" fill="white"/>
<path d="M1151.87 46.208C1151.22 46.208 1150.62 46.1173 1150.08 45.936C1149.55 45.744 1149.09 45.44 1148.7 45.024C1148.32 44.5973 1148.02 44.0533 1147.81 43.392C1147.59 42.72 1147.49 41.904 1147.49 40.944V34.224H1149.34V41.072C1149.34 41.7333 1149.41 42.2933 1149.54 42.752C1149.66 43.2 1149.84 43.5627 1150.06 43.84C1150.29 44.1067 1150.55 44.2987 1150.86 44.416C1151.17 44.5333 1151.51 44.592 1151.87 44.592C1152.25 44.592 1152.59 44.5333 1152.9 44.416C1153.22 44.2987 1153.49 44.1067 1153.71 43.84C1153.95 43.5627 1154.13 43.2 1154.26 42.752C1154.38 42.2933 1154.45 41.7333 1154.45 41.072V34.224H1156.24V40.944C1156.24 41.904 1156.13 42.72 1155.92 43.392C1155.72 44.0533 1155.42 44.5973 1155.04 45.024C1154.66 45.44 1154.2 45.744 1153.66 45.936C1153.13 46.1173 1152.53 46.208 1151.87 46.208ZM1161.42 46.208C1160.81 46.208 1160.21 46.096 1159.62 45.872C1159.04 45.6373 1158.53 45.344 1158.1 44.992L1158.97 43.808C1159.36 44.1173 1159.76 44.3627 1160.15 44.544C1160.55 44.7253 1160.98 44.816 1161.46 44.816C1162.01 44.816 1162.4 44.704 1162.65 44.48C1162.89 44.256 1163.02 43.9733 1163.02 43.632C1163.02 43.4293 1162.96 43.2533 1162.84 43.104C1162.73 42.9547 1162.58 42.8267 1162.39 42.72C1162.21 42.6027 1162 42.496 1161.77 42.4C1161.54 42.304 1161.31 42.208 1161.06 42.112C1160.78 41.9947 1160.48 41.8667 1160.18 41.728C1159.89 41.5893 1159.61 41.424 1159.37 41.232C1159.13 41.0293 1158.94 40.7947 1158.78 40.528C1158.63 40.2507 1158.55 39.9253 1158.55 39.552C1158.55 39.1787 1158.62 38.8373 1158.76 38.528C1158.91 38.2187 1159.12 37.9467 1159.38 37.712C1159.65 37.4773 1159.98 37.296 1160.36 37.168C1160.76 37.04 1161.19 36.976 1161.67 36.976C1162.28 36.976 1162.82 37.0827 1163.29 37.296C1163.76 37.4987 1164.17 37.7387 1164.54 38.016L1163.67 39.152C1163.36 38.928 1163.05 38.7467 1162.73 38.608C1162.42 38.4587 1162.08 38.384 1161.7 38.384C1161.22 38.384 1160.87 38.4907 1160.63 38.704C1160.41 38.9067 1160.3 39.1627 1160.3 39.472C1160.3 39.664 1160.35 39.8293 1160.46 39.968C1160.56 40.096 1160.7 40.2133 1160.87 40.32C1161.04 40.4267 1161.24 40.5227 1161.46 40.608C1161.7 40.6933 1161.93 40.7787 1162.17 40.864C1162.48 40.9813 1162.79 41.1093 1163.1 41.248C1163.41 41.3867 1163.68 41.5573 1163.93 41.76C1164.17 41.952 1164.37 42.192 1164.52 42.48C1164.68 42.768 1164.76 43.12 1164.76 43.536C1164.76 43.8987 1164.69 44.2453 1164.54 44.576C1164.4 44.896 1164.18 45.1787 1163.9 45.424C1163.62 45.6693 1163.27 45.8613 1162.86 46C1162.44 46.1387 1161.96 46.208 1161.42 46.208ZM1170.37 46.208C1169.77 46.208 1169.21 46.1067 1168.69 45.904C1168.17 45.6907 1167.71 45.392 1167.33 45.008C1166.94 44.6133 1166.64 44.1333 1166.42 43.568C1166.19 42.992 1166.08 42.3413 1166.08 41.616C1166.08 40.8907 1166.19 40.2453 1166.42 39.68C1166.64 39.104 1166.94 38.6187 1167.31 38.224C1167.69 37.8187 1168.11 37.5093 1168.59 37.296C1169.08 37.0827 1169.58 36.976 1170.1 36.976C1170.68 36.976 1171.19 37.0773 1171.63 37.28C1172.08 37.4827 1172.45 37.7653 1172.75 38.128C1173.06 38.4907 1173.29 38.928 1173.44 39.44C1173.6 39.952 1173.68 40.5227 1173.68 41.152C1173.68 41.344 1173.67 41.52 1173.65 41.68C1173.64 41.8293 1173.62 41.9627 1173.6 42.08H1167.89C1167.96 42.9227 1168.24 43.584 1168.72 44.064C1169.21 44.5333 1169.84 44.768 1170.61 44.768C1171 44.768 1171.37 44.7147 1171.71 44.608C1172.05 44.4907 1172.38 44.3253 1172.7 44.112L1173.34 45.28C1172.94 45.5573 1172.49 45.7813 1171.98 45.952C1171.48 46.1227 1170.94 46.208 1170.37 46.208ZM1172.1 40.816C1172.1 40.048 1171.93 39.456 1171.58 39.04C1171.25 38.624 1170.77 38.416 1170.13 38.416C1169.86 38.416 1169.6 38.4693 1169.34 38.576C1169.09 38.6827 1168.86 38.8373 1168.66 39.04C1168.45 39.2427 1168.28 39.4933 1168.14 39.792C1168.01 40.0907 1167.91 40.432 1167.87 40.816H1172.1ZM1175.75 37.2H1177.26L1177.4 38.784H1177.45C1177.76 38.208 1178.13 37.7653 1178.57 37.456C1179 37.136 1179.46 36.976 1179.94 36.976C1180.16 36.976 1180.34 36.992 1180.49 37.024C1180.65 37.056 1180.8 37.104 1180.94 37.168L1180.6 38.768C1180.45 38.7147 1180.31 38.6773 1180.18 38.656C1180.06 38.6347 1179.9 38.624 1179.72 38.624C1179.36 38.624 1178.98 38.768 1178.58 39.056C1178.19 39.3333 1177.85 39.8187 1177.58 40.512V46H1175.75V37.2ZM1196.9 37.248L1192.5 43.872L1188.07 37.232H1189.94L1192.5 41.264L1194.95 37.248H1196.9Z" fill="black"/>
</g>
<path d="M214.576 204.448C213.083 204.448 211.675 204.181 210.352 203.648C209.029 203.115 207.877 202.336 206.896 201.312C205.915 200.288 205.136 199.019 204.56 197.504C204.005 195.989 203.728 194.24 203.728 192.256C203.728 190.293 204.016 188.555 204.592 187.04C205.189 185.504 205.989 184.203 206.992 183.136C207.995 182.069 209.157 181.259 210.48 180.704C211.824 180.149 213.243 179.872 214.736 179.872C216.272 179.872 217.616 180.181 218.768 180.8C219.941 181.397 220.912 182.101 221.68 182.912L219.184 185.92C218.587 185.344 217.936 184.875 217.232 184.512C216.528 184.128 215.728 183.936 214.832 183.936C213.936 183.936 213.104 184.128 212.336 184.512C211.568 184.875 210.907 185.408 210.352 186.112C209.797 186.816 209.36 187.669 209.04 188.672C208.72 189.675 208.56 190.816 208.56 192.096C208.56 193.376 208.699 194.528 208.976 195.552C209.275 196.576 209.691 197.451 210.224 198.176C210.779 198.88 211.429 199.424 212.176 199.808C212.944 200.171 213.797 200.352 214.736 200.352C215.76 200.352 216.667 200.139 217.456 199.712C218.267 199.264 218.992 198.699 219.632 198.016L222.128 200.96C220.187 203.285 217.669 204.448 214.576 204.448ZM229.399 186.08L229.719 189.248H229.847C230.509 188.075 231.277 187.179 232.151 186.56C233.047 185.941 233.975 185.632 234.935 185.632C235.426 185.632 235.831 185.675 236.151 185.76C236.471 185.824 236.77 185.909 237.047 186.016L236.215 190.08C235.917 189.973 235.618 189.899 235.319 189.856C235.042 189.813 234.722 189.792 234.359 189.792C233.655 189.792 232.919 190.059 232.151 190.592C231.383 191.104 230.743 192.011 230.231 193.312V204H225.559V186.08H229.399ZM247.273 204.448C246.035 204.448 244.873 204.235 243.785 203.808C242.697 203.381 241.747 202.773 240.937 201.984C240.147 201.173 239.518 200.192 239.049 199.04C238.601 197.867 238.377 196.544 238.377 195.072C238.377 193.621 238.611 192.32 239.081 191.168C239.55 189.995 240.169 189.003 240.937 188.192C241.726 187.36 242.622 186.731 243.625 186.304C244.627 185.856 245.662 185.632 246.729 185.632C247.966 185.632 249.043 185.845 249.961 186.272C250.899 186.699 251.678 187.296 252.297 188.064C252.937 188.832 253.417 189.739 253.737 190.784C254.057 191.829 254.217 192.971 254.217 194.208C254.217 194.635 254.195 195.051 254.153 195.456C254.11 195.84 254.057 196.139 253.993 196.352H242.953C243.145 197.824 243.678 198.944 244.553 199.712C245.449 200.459 246.569 200.832 247.913 200.832C248.659 200.832 249.353 200.725 249.993 200.512C250.654 200.299 251.305 199.989 251.945 199.584L253.545 202.464C252.649 203.083 251.667 203.573 250.601 203.936C249.534 204.277 248.425 204.448 247.273 204.448ZM250.185 193.248C250.185 192.032 249.907 191.072 249.353 190.368C248.798 189.643 247.945 189.28 246.793 189.28C245.854 189.28 245.011 189.621 244.265 190.304C243.518 190.965 243.059 191.947 242.889 193.248H250.185ZM262.507 204.32C261.717 204.32 260.992 204.203 260.331 203.968C259.669 203.712 259.104 203.36 258.635 202.912C258.187 202.443 257.835 201.888 257.579 201.248C257.323 200.608 257.195 199.904 257.195 199.136C257.088 196.939 257.845 195.317 259.467 194.272C261.109 193.205 263.787 192.619 267.499 192.512C267.584 191.765 267.445 191.008 267.083 190.24C266.699 189.685 265.824 189.408 264.459 189.408C263.627 189.408 262.752 189.557 261.835 189.856C260.939 190.155 260.085 190.571 259.275 191.104L257.867 187.744C258.848 187.147 259.979 186.645 261.259 186.24C262.56 185.835 263.915 185.632 265.323 185.632C269.909 185.632 272.203 188.267 272.203 193.536V204H268.363L268.011 202.176H267.915C267.147 202.837 266.304 203.36 265.387 203.744C264.491 204.128 263.531 204.32 262.507 204.32ZM263.947 200.736C264.629 200.715 265.248 200.565 265.803 200.288C266.379 199.989 266.944 199.563 267.499 199.008V195.392C266.944 195.435 266.389 195.488 265.835 195.552C265.301 195.595 264.779 195.659 264.267 195.744C263.243 195.893 262.517 196.203 262.091 196.672C261.685 197.141 261.493 197.696 261.515 198.336C261.536 199.083 261.771 199.669 262.219 200.096C262.688 200.523 263.264 200.736 263.947 200.736ZM282.963 204.448C281.896 204.448 280.99 204.288 280.243 203.968C279.496 203.648 278.888 203.2 278.419 202.624C277.95 202.027 277.608 201.312 277.395 200.48C277.182 199.648 277.075 198.731 277.075 197.728V189.792H274.547V186.304L277.299 186.08L277.843 181.28H281.779V186.08H286.195V189.792H281.779V197.728C281.779 199.733 282.59 200.736 284.211 200.736C284.51 200.736 284.819 200.704 285.139 200.64C285.459 200.555 285.736 200.459 285.971 200.352L286.739 203.776C286.248 203.947 285.694 204.096 285.075 204.224C284.456 204.373 283.752 204.448 282.963 204.448ZM289.424 183.2V178.656H294.097V183.2H289.424ZM289.393 186.08H294.065V204H289.393V186.08ZM302.524 186.08L302.844 188.448H302.972C303.762 187.68 304.626 187.019 305.564 186.464C306.503 185.909 307.58 185.632 308.796 185.632C310.738 185.632 312.146 186.272 313.02 187.552C313.895 188.811 314.332 190.571 314.332 192.832V204H309.628V193.408C309.628 192.021 309.426 191.051 309.02 190.496C308.636 189.941 307.996 189.664 307.1 189.664C306.354 189.664 305.714 189.835 305.18 190.176C304.647 190.517 304.039 191.019 303.356 191.68V204H298.684V186.08H302.524ZM325.488 211.776C324.443 211.776 323.462 211.68 322.544 211.488C321.627 211.317 320.827 211.04 320.144 210.656C319.483 210.272 318.96 209.792 318.576 209.216C318.192 208.64 318 207.957 318 207.168C318 206.421 318.224 205.728 318.672 205.088C319.12 204.469 319.75 203.925 320.56 203.456V203.296C320.091 202.997 319.696 202.613 319.376 202.144C319.078 201.653 318.928 201.035 318.928 200.288C318.928 199.605 319.12 198.976 319.504 198.4C319.91 197.803 320.379 197.312 320.912 196.928V196.8C320.294 196.352 319.739 195.723 319.248 194.912C318.779 194.101 318.544 193.173 318.544 192.128C318.544 191.061 318.736 190.133 319.12 189.344C319.526 188.533 320.059 187.851 320.72 187.296C321.403 186.741 322.171 186.325 323.024 186.048C323.899 185.771 324.816 185.632 325.776 185.632C326.267 185.632 326.747 185.675 327.216 185.76C327.686 185.845 328.102 185.952 328.464 186.08H334.928V189.536H331.856C332.091 189.835 332.283 190.229 332.432 190.72C332.603 191.189 332.688 191.701 332.688 192.256C332.688 193.259 332.507 194.144 332.144 194.912C331.782 195.659 331.291 196.288 330.672 196.8C330.054 197.312 329.318 197.696 328.464 197.952C327.632 198.208 326.736 198.336 325.776 198.336C325.414 198.336 325.03 198.304 324.624 198.24C324.24 198.155 323.856 198.048 323.472 197.92C323.216 198.133 323.024 198.357 322.896 198.592C322.768 198.805 322.704 199.093 322.704 199.456C322.704 199.947 322.896 200.32 323.28 200.576C323.686 200.811 324.432 200.928 325.52 200.928H328.56C330.758 200.928 332.411 201.28 333.52 201.984C334.651 202.667 335.216 203.808 335.216 205.408C335.216 206.304 334.992 207.136 334.544 207.904C334.096 208.693 333.446 209.376 332.592 209.952C331.76 210.528 330.747 210.976 329.552 211.296C328.358 211.616 327.003 211.776 325.488 211.776ZM325.776 195.424C326.566 195.424 327.227 195.147 327.76 194.592C328.294 194.037 328.56 193.216 328.56 192.128C328.56 191.04 328.294 190.219 327.76 189.664C327.248 189.109 326.587 188.832 325.776 188.832C324.966 188.832 324.294 189.109 323.76 189.664C323.227 190.219 322.96 191.04 322.96 192.128C322.96 193.216 323.227 194.037 323.76 194.592C324.315 195.147 324.987 195.424 325.776 195.424ZM326.192 208.8C327.536 208.8 328.624 208.544 329.456 208.032C330.31 207.52 330.736 206.912 330.736 206.208C330.736 205.568 330.48 205.141 329.968 204.928C329.456 204.715 328.72 204.608 327.76 204.608H325.584C325.03 204.608 324.55 204.587 324.144 204.544C323.76 204.501 323.408 204.437 323.088 204.352C322.299 204.992 321.904 205.685 321.904 206.432C321.904 207.179 322.278 207.755 323.024 208.16C323.792 208.587 324.848 208.8 326.192 208.8ZM349.944 204.32C349.155 204.32 348.429 204.203 347.768 203.968C347.107 203.712 346.541 203.36 346.072 202.912C345.624 202.443 345.272 201.888 345.016 201.248C344.76 200.608 344.632 199.904 344.632 199.136C344.525 196.939 345.283 195.317 346.904 194.272C348.547 193.205 351.224 192.619 354.936 192.512C355.021 191.765 354.883 191.008 354.52 190.24C354.136 189.685 353.261 189.408 351.896 189.408C351.064 189.408 350.189 189.557 349.272 189.856C348.376 190.155 347.523 190.571 346.712 191.104L345.304 187.744C346.285 187.147 347.416 186.645 348.696 186.24C349.997 185.835 351.352 185.632 352.76 185.632C357.347 185.632 359.64 188.267 359.64 193.536V204H355.8L355.448 202.176H355.352C354.584 202.837 353.741 203.36 352.824 203.744C351.928 204.128 350.968 204.32 349.944 204.32ZM351.384 200.736C352.067 200.715 352.685 200.565 353.24 200.288C353.816 199.989 354.381 199.563 354.936 199.008V195.392C354.381 195.435 353.827 195.488 353.272 195.552C352.739 195.595 352.216 195.659 351.704 195.744C350.68 195.893 349.955 196.203 349.528 196.672C349.123 197.141 348.931 197.696 348.952 198.336C348.973 199.083 349.208 199.669 349.656 200.096C350.125 200.523 350.701 200.736 351.384 200.736ZM377.22 204.448C375.492 204.448 374.031 204.107 372.836 203.424C371.663 202.741 370.671 201.696 369.86 200.288L373.124 197.888C373.594 198.784 374.127 199.424 374.724 199.808C375.322 200.171 375.962 200.352 376.644 200.352C377.69 200.352 378.479 200.032 379.012 199.392C379.546 198.752 379.812 197.611 379.812 195.968V180.32H384.548V196.352C384.548 197.461 384.399 198.507 384.1 199.488C383.823 200.469 383.386 201.333 382.788 202.08C382.191 202.805 381.434 203.381 380.516 203.808C379.599 204.235 378.5 204.448 377.22 204.448ZM397.36 204.448C396.25 204.448 395.173 204.235 394.128 203.808C393.082 203.381 392.165 202.773 391.376 201.984C390.586 201.173 389.946 200.192 389.456 199.04C388.986 197.867 388.752 196.544 388.752 195.072C388.752 193.579 388.986 192.245 389.456 191.072C389.946 189.899 390.586 188.917 391.376 188.128C392.165 187.317 393.082 186.699 394.128 186.272C395.173 185.845 396.25 185.632 397.36 185.632C398.49 185.632 399.568 185.845 400.592 186.272C401.637 186.699 402.554 187.317 403.344 188.128C404.133 188.917 404.762 189.899 405.232 191.072C405.722 192.245 405.968 193.579 405.968 195.072C405.968 196.544 405.722 197.867 405.232 199.04C404.762 200.192 404.133 201.173 403.344 201.984C402.554 202.773 401.637 203.381 400.592 203.808C399.568 204.235 398.49 204.448 397.36 204.448ZM397.36 200.608C398.576 200.608 399.514 200.107 400.176 199.104C400.837 198.101 401.168 196.757 401.168 195.072C401.168 193.344 400.837 191.979 400.176 190.976C399.514 189.973 398.576 189.472 397.36 189.472C396.144 189.472 395.205 189.973 394.544 190.976C393.882 191.979 393.552 193.344 393.552 195.072C393.552 196.757 393.882 198.101 394.544 199.104C395.205 200.107 396.144 200.608 397.36 200.608ZM418.895 204.448C418.084 204.448 417.263 204.245 416.431 203.84C415.62 203.435 414.842 202.859 414.095 202.112H413.999L413.583 204H409.903V178.464H414.575V184.896L414.479 187.776C415.183 187.136 415.962 186.624 416.815 186.24C417.668 185.835 418.543 185.632 419.439 185.632C420.548 185.632 421.54 185.856 422.415 186.304C423.29 186.731 424.026 187.339 424.623 188.128C425.242 188.917 425.711 189.877 426.031 191.008C426.351 192.117 426.511 193.355 426.511 194.72C426.511 196.256 426.298 197.632 425.871 198.848C425.444 200.043 424.879 201.056 424.175 201.888C423.471 202.72 422.66 203.36 421.743 203.808C420.826 204.235 419.876 204.448 418.895 204.448ZM417.839 200.576C418.927 200.576 419.834 200.117 420.559 199.2C421.306 198.261 421.679 196.8 421.679 194.816C421.679 193.088 421.391 191.776 420.815 190.88C420.26 189.963 419.364 189.504 418.127 189.504C417.508 189.504 416.911 189.664 416.335 189.984C415.78 190.283 415.194 190.741 414.575 191.36V199.232C415.13 199.723 415.684 200.075 416.239 200.288C416.815 200.48 417.348 200.576 417.839 200.576ZM445.907 180.32C447.208 180.32 448.424 180.448 449.555 180.704C450.685 180.939 451.667 181.344 452.499 181.92C453.331 182.496 453.981 183.264 454.451 184.224C454.941 185.163 455.187 186.336 455.187 187.744C455.187 189.088 454.941 190.261 454.451 191.264C453.981 192.245 453.331 193.056 452.499 193.696C451.688 194.336 450.728 194.816 449.619 195.136C448.509 195.435 447.315 195.584 446.035 195.584H442.867V204H438.131V180.32H445.907ZM445.715 191.84C448.936 191.84 450.547 190.475 450.547 187.744C450.547 186.357 450.12 185.397 449.267 184.864C448.435 184.331 447.197 184.064 445.555 184.064H442.867V191.84H445.715ZM465.766 204.448C464.657 204.448 463.579 204.235 462.534 203.808C461.489 203.381 460.571 202.773 459.782 201.984C458.993 201.173 458.353 200.192 457.862 199.04C457.393 197.867 457.158 196.544 457.158 195.072C457.158 193.579 457.393 192.245 457.862 191.072C458.353 189.899 458.993 188.917 459.782 188.128C460.571 187.317 461.489 186.699 462.534 186.272C463.579 185.845 464.657 185.632 465.766 185.632C466.897 185.632 467.974 185.845 468.998 186.272C470.043 186.699 470.961 187.317 471.75 188.128C472.539 188.917 473.169 189.899 473.638 191.072C474.129 192.245 474.374 193.579 474.374 195.072C474.374 196.544 474.129 197.867 473.638 199.04C473.169 200.192 472.539 201.173 471.75 201.984C470.961 202.773 470.043 203.381 468.998 203.808C467.974 204.235 466.897 204.448 465.766 204.448ZM465.766 200.608C466.982 200.608 467.921 200.107 468.582 199.104C469.243 198.101 469.574 196.757 469.574 195.072C469.574 193.344 469.243 191.979 468.582 190.976C467.921 189.973 466.982 189.472 465.766 189.472C464.55 189.472 463.611 189.973 462.95 190.976C462.289 191.979 461.958 193.344 461.958 195.072C461.958 196.757 462.289 198.101 462.95 199.104C463.611 200.107 464.55 200.608 465.766 200.608ZM483.429 204.448C482.213 204.448 480.997 204.213 479.781 203.744C478.565 203.275 477.509 202.667 476.613 201.92L478.757 198.976C479.568 199.595 480.357 200.075 481.125 200.416C481.915 200.757 482.725 200.928 483.557 200.928C484.453 200.928 485.104 200.757 485.509 200.416C485.936 200.053 486.149 199.595 486.149 199.04C486.149 198.699 486.043 198.411 485.829 198.176C485.616 197.92 485.328 197.696 484.965 197.504C484.624 197.291 484.229 197.099 483.781 196.928C483.333 196.736 482.875 196.544 482.405 196.352C481.829 196.139 481.253 195.893 480.677 195.616C480.101 195.317 479.579 194.965 479.109 194.56C478.64 194.133 478.256 193.643 477.957 193.088C477.659 192.533 477.509 191.883 477.509 191.136C477.509 190.325 477.669 189.589 477.989 188.928C478.309 188.245 478.757 187.659 479.333 187.168C479.909 186.677 480.603 186.304 481.413 186.048C482.245 185.771 483.163 185.632 484.165 185.632C485.509 185.632 486.672 185.867 487.653 186.336C488.656 186.784 489.531 187.285 490.277 187.84L488.165 190.688C487.525 190.24 486.885 189.877 486.245 189.6C485.627 189.301 484.976 189.152 484.293 189.152C483.483 189.152 482.885 189.312 482.501 189.632C482.117 189.952 481.925 190.368 481.925 190.88C481.925 191.2 482.021 191.477 482.213 191.712C482.427 191.947 482.704 192.16 483.045 192.352C483.387 192.544 483.771 192.725 484.197 192.896C484.645 193.045 485.104 193.205 485.573 193.376C486.171 193.611 486.757 193.867 487.333 194.144C487.931 194.421 488.464 194.763 488.933 195.168C489.424 195.573 489.819 196.075 490.117 196.672C490.416 197.248 490.565 197.952 490.565 198.784C490.565 199.573 490.405 200.309 490.085 200.992C489.787 201.675 489.339 202.272 488.741 202.784C488.144 203.296 487.397 203.701 486.501 204C485.627 204.299 484.603 204.448 483.429 204.448ZM499.963 204.448C498.896 204.448 497.99 204.288 497.243 203.968C496.496 203.648 495.888 203.2 495.419 202.624C494.95 202.027 494.608 201.312 494.395 200.48C494.182 199.648 494.075 198.731 494.075 197.728V189.792H491.547V186.304L494.299 186.08L494.843 181.28H498.779V186.08H503.195V189.792H498.779V197.728C498.779 199.733 499.59 200.736 501.211 200.736C501.51 200.736 501.819 200.704 502.139 200.64C502.459 200.555 502.736 200.459 502.971 200.352L503.739 203.776C503.248 203.947 502.694 204.096 502.075 204.224C501.456 204.373 500.752 204.448 499.963 204.448ZM506.424 183.2V178.656H511.097V183.2H506.424ZM506.393 186.08H511.065V204H506.393V186.08ZM519.524 186.08L519.844 188.448H519.972C520.762 187.68 521.626 187.019 522.564 186.464C523.503 185.909 524.58 185.632 525.796 185.632C527.738 185.632 529.146 186.272 530.02 187.552C530.895 188.811 531.332 190.571 531.332 192.832V204H526.628V193.408C526.628 192.021 526.426 191.051 526.02 190.496C525.636 189.941 524.996 189.664 524.1 189.664C523.354 189.664 522.714 189.835 522.18 190.176C521.647 190.517 521.039 191.019 520.356 191.68V204H515.684V186.08H519.524ZM542.488 211.776C541.443 211.776 540.462 211.68 539.544 211.488C538.627 211.317 537.827 211.04 537.144 210.656C536.483 210.272 535.96 209.792 535.576 209.216C535.192 208.64 535 207.957 535 207.168C535 206.421 535.224 205.728 535.672 205.088C536.12 204.469 536.75 203.925 537.56 203.456V203.296C537.091 202.997 536.696 202.613 536.376 202.144C536.078 201.653 535.928 201.035 535.928 200.288C535.928 199.605 536.12 198.976 536.504 198.4C536.91 197.803 537.379 197.312 537.912 196.928V196.8C537.294 196.352 536.739 195.723 536.248 194.912C535.779 194.101 535.544 193.173 535.544 192.128C535.544 191.061 535.736 190.133 536.12 189.344C536.526 188.533 537.059 187.851 537.72 187.296C538.403 186.741 539.171 186.325 540.024 186.048C540.899 185.771 541.816 185.632 542.776 185.632C543.267 185.632 543.747 185.675 544.216 185.76C544.686 185.845 545.102 185.952 545.464 186.08H551.928V189.536H548.856C549.091 189.835 549.283 190.229 549.432 190.72C549.603 191.189 549.688 191.701 549.688 192.256C549.688 193.259 549.507 194.144 549.144 194.912C548.782 195.659 548.291 196.288 547.672 196.8C547.054 197.312 546.318 197.696 545.464 197.952C544.632 198.208 543.736 198.336 542.776 198.336C542.414 198.336 542.03 198.304 541.624 198.24C541.24 198.155 540.856 198.048 540.472 197.92C540.216 198.133 540.024 198.357 539.896 198.592C539.768 198.805 539.704 199.093 539.704 199.456C539.704 199.947 539.896 200.32 540.28 200.576C540.686 200.811 541.432 200.928 542.52 200.928H545.56C547.758 200.928 549.411 201.28 550.52 201.984C551.651 202.667 552.216 203.808 552.216 205.408C552.216 206.304 551.992 207.136 551.544 207.904C551.096 208.693 550.446 209.376 549.592 209.952C548.76 210.528 547.747 210.976 546.552 211.296C545.358 211.616 544.003 211.776 542.488 211.776ZM542.776 195.424C543.566 195.424 544.227 195.147 544.76 194.592C545.294 194.037 545.56 193.216 545.56 192.128C545.56 191.04 545.294 190.219 544.76 189.664C544.248 189.109 543.587 188.832 542.776 188.832C541.966 188.832 541.294 189.109 540.76 189.664C540.227 190.219 539.96 191.04 539.96 192.128C539.96 193.216 540.227 194.037 540.76 194.592C541.315 195.147 541.987 195.424 542.776 195.424ZM543.192 208.8C544.536 208.8 545.624 208.544 546.456 208.032C547.31 207.52 547.736 206.912 547.736 206.208C547.736 205.568 547.48 205.141 546.968 204.928C546.456 204.715 545.72 204.608 544.76 204.608H542.584C542.03 204.608 541.55 204.587 541.144 204.544C540.76 204.501 540.408 204.437 540.088 204.352C539.299 204.992 538.904 205.685 538.904 206.432C538.904 207.179 539.278 207.755 540.024 208.16C540.792 208.587 541.848 208.8 543.192 208.8Z" fill="black"/>
</g>
<defs>
<filter id="filter0_d_77_47" x="-8" y="-1" width="1456" height="96" filterUnits="userSpaceOnUse" color-interpolation-filters="sRGB">
<feFlood flood-opacity="0" result="BackgroundImageFix"/>
<feColorMatrix in="SourceAlpha" type="matrix" values="0 0 0 0 0 0 0 0 0 0 0 0 0 0 0 0 0 0 127 0" result="hardAlpha"/>
<feOffset dy="7"/>
<feGaussianBlur stdDeviation="4"/>
<feComposite in2="hardAlpha" operator="out"/>
<feColorMatrix type="matrix" values="0 0 0 0 0 0 0 0 0 0 0 0 0 0 0 0 0 0 0.07 0"/>
<feBlend mode="normal" in2="BackgroundImageFix" result="effect1_dropShadow_77_47"/>
<feBlend mode="normal" in="SourceGraphic" in2="effect1_dropShadow_77_47" result="shape"/>
</filter>
<clipPath id="clip0_77_47">
<rect width="1440" height="1666" fill="white"/>
</clipPath>
<clipPath id="clip1_77_47">
<rect width="91" height="43" fill="white" transform="translate(223 18.5)"/>
</clipPath>
</defs>
</svg>
