<svg width="91" height="44" viewBox="0 0 91 44" fill="none" xmlns="http://www.w3.org/2000/svg">
<g clip-path="url(#clip0_103_274)">
<path d="M73.7625 26.7067C77.1289 26.7067 79.8583 23.9881 79.8583 20.6344C79.8583 17.2808 77.1289 14.5621 73.7625 14.5621C70.3961 14.5621 67.6667 17.2808 67.6667 20.6344C67.6667 23.9881 70.3961 26.7067 73.7625 26.7067Z" stroke="#F19F00" stroke-width="4" stroke-linecap="round" stroke-linejoin="round"/>
<path d="M88.725 5.72974L78.085 16.3287M82.6292 11.802L85.9542 15.1142L89.8333 11.25L86.5083 7.93784" stroke="#F19F00" stroke-width="4" stroke-linecap="round" stroke-linejoin="round"/>
<path d="M3.15002 8.48014H6.88336L5.79447 16.1892L11.1611 8.48014H15.3223L9.21669 16.4604C9.89079 18.0874 10.5778 19.6886 11.2778 21.2639C12.0037 22.8393 12.7167 24.4405 13.4167 26.0675H8.94445L5.60002 17.5063L4.39447 26.0675H0.661133L3.15002 8.48014ZM18.0719 12.354H21.2608L21.1052 14.0973H21.183C21.3126 14.0198 21.4941 13.8648 21.7274 13.6324C21.9867 13.4 22.3108 13.1675 22.6997 12.9351C23.6589 12.3411 24.6052 12.0441 25.5385 12.0441C26.8349 12.0441 27.6904 12.4315 28.1052 13.2063C28.52 13.9811 28.6108 15.182 28.3774 16.809L27.0552 26.0675H23.5163L24.6441 17.7C24.7737 16.7186 24.7608 16.0601 24.6052 15.7243C24.4497 15.3628 24.0997 15.182 23.5552 15.182C23.0885 15.182 22.6608 15.324 22.2719 15.6081C21.546 16.1763 21.1441 16.5378 21.0663 16.6928L19.7441 26.0675H16.1274L18.0719 12.354ZM35.0936 23.782C35.8715 23.782 36.4807 23.4204 36.9215 22.6973C37.3881 21.9742 37.7252 20.812 37.9326 19.2108C38.1659 17.5838 38.1529 16.4216 37.8937 15.7243C37.6344 15.027 37.1288 14.6784 36.377 14.6784C35.6252 14.6784 35.0288 15.027 34.5881 15.7243C34.1474 16.4216 33.8103 17.5838 33.577 19.2108C33.3696 20.8378 33.3826 22.0129 33.6159 22.736C33.8492 23.4333 34.3418 23.782 35.0936 23.782ZM41.7436 15.918C41.8992 16.8219 41.8733 17.9195 41.6659 19.2108C41.4844 20.5021 41.1863 21.5997 40.7715 22.5036C40.3826 23.4075 39.89 24.1564 39.2936 24.7504C38.1788 25.8609 36.6622 26.4162 34.7436 26.4162C31.8918 26.4162 30.2455 25.112 29.8048 22.5036C29.6492 21.5997 29.6752 20.4892 29.8826 19.172C30.1677 16.7445 30.9585 14.9237 32.2548 13.7099C33.4215 12.5994 34.9122 12.0441 36.727 12.0441C39.6307 12.0441 41.3029 13.3354 41.7436 15.918ZM52.4709 15.2594C51.6154 14.9753 50.8894 14.8333 50.2932 14.8333C49.3857 14.8333 48.6728 15.1949 48.1542 15.918C47.6357 16.6153 47.2598 17.7516 47.0265 19.327C46.8191 20.8766 46.8839 21.9742 47.2209 22.6198C47.5839 23.2396 48.0894 23.5495 48.7376 23.5495C49.4117 23.5495 49.995 23.4591 50.4876 23.2784C50.9802 23.0717 51.3173 22.9426 51.4987 22.891L52.0042 25.1378C50.5783 25.9901 49.2173 26.4162 47.9209 26.4162C44.1876 26.4162 42.645 24.079 43.2932 19.4045C43.9413 14.4976 46.2357 12.0441 50.1765 12.0441C51.2913 12.0441 52.3283 12.2249 53.2876 12.5865L52.4709 15.2594ZM56.9885 6.85311L60.6439 6.34955L58.9721 18.2811L63.2888 12.354H67.3721L62.0439 18.4747L65.8554 26.0675H61.5773L58.7773 19.5207L57.883 26.0675H54.2663L56.9885 6.85311Z" fill="#F19F00"/>
<path d="M40.04 26.9663L42.9644 26.5634L41.6267 36.1087L45.08 31.367H48.3467L44.0844 36.2636L47.1333 42.3379H43.7111L41.4711 37.1004L40.7556 42.3379H37.8622L40.04 26.9663ZM50.4692 31.367H53.0203L52.8958 32.7616H52.9581C53.0618 32.6996 53.207 32.5757 53.3937 32.3897C53.601 32.2038 53.8603 32.0178 54.1714 31.8319C54.9389 31.3567 55.6959 31.1191 56.4425 31.1191C57.4796 31.1191 58.1641 31.429 58.4961 32.0488C58.828 32.6687 58.9003 33.6294 58.7137 34.931L57.6559 42.3379H54.8248L55.727 35.6438C55.8307 34.8587 55.8203 34.3318 55.6959 34.0633C55.5714 33.774 55.2914 33.6294 54.8559 33.6294C54.4825 33.6294 54.1403 33.743 53.8292 33.9703C53.2485 34.4248 52.927 34.7141 52.8648 34.838L51.807 42.3379H48.9137L50.4692 31.367ZM64.0868 40.5094C64.7086 40.5094 65.1963 40.2202 65.5486 39.6416C65.9219 39.0631 66.192 38.1334 66.3577 36.8524C66.5443 35.5508 66.5338 34.6211 66.3268 34.0633C66.1191 33.5054 65.7148 33.2265 65.1134 33.2265C64.512 33.2265 64.0348 33.5054 63.6819 34.0633C63.3296 34.6211 63.0601 35.5508 62.8734 36.8524C62.7072 38.1541 62.7177 39.0941 62.9043 39.6726C63.091 40.2304 63.4853 40.5094 64.0868 40.5094ZM69.4068 34.2182C69.531 34.9413 69.5106 35.8194 69.3443 36.8524C69.1991 37.8855 68.9605 38.7636 68.6286 39.4867C68.3177 40.2098 67.9239 40.809 67.4468 41.2842C66.5548 42.1726 65.3415 42.6168 63.8068 42.6168C61.5253 42.6168 60.2082 41.5734 59.8553 39.4867C59.731 38.7636 59.752 37.8751 59.9177 36.8215C60.1458 34.8793 60.7787 33.4228 61.8153 32.4517C62.7486 31.5633 63.9415 31.1191 65.3934 31.1191C67.7162 31.1191 69.0538 32.1521 69.4068 34.2182ZM77.9882 33.6914C77.3039 33.4641 76.7235 33.3504 76.2463 33.3504C75.5201 33.3504 74.9502 33.6397 74.5348 34.2182C74.1201 34.7761 73.8197 35.6851 73.633 36.9454C73.4667 38.185 73.5187 39.0631 73.7882 39.5796C74.0787 40.0755 74.4835 40.3234 75.0015 40.3234C75.5411 40.3234 76.0078 40.2511 76.4015 40.1065C76.7958 39.9412 77.0653 39.8379 77.2106 39.7966L77.6148 41.5941C76.4744 42.2759 75.3853 42.6168 74.3482 42.6168C71.3615 42.6168 70.1278 40.747 70.6463 37.0074C71.1649 33.0819 73.0001 31.1191 76.153 31.1191C77.0449 31.1191 77.8744 31.2637 78.6415 31.553L77.9882 33.6914ZM81.6025 26.9663L84.5267 26.5634L83.1892 36.1087L86.6425 31.367H89.9092L85.6467 36.2636L88.6958 42.3379H85.2734L83.0334 37.1004L82.3183 42.3379H79.4249L81.6025 26.9663Z" fill="#F19F00"/>
</g>
<defs>
<clipPath id="clip0_103_274">
<rect width="91" height="43" fill="white" transform="translate(0 0.5)"/>
</clipPath>
</defs>
</svg>
