<svg width="95" height="45" viewBox="0 0 95 45" fill="none" xmlns="http://www.w3.org/2000/svg">
<g clip-path="url(#clip0_103_284)">
<path d="M77.0048 27.4257C80.5192 27.4257 83.3686 24.5806 83.3686 21.0709C83.3686 17.5613 80.5192 14.7162 77.0048 14.7162C73.4904 14.7162 70.641 17.5613 70.641 21.0709C70.641 24.5806 73.4904 27.4257 77.0048 27.4257Z" stroke="#4F4F4F" stroke-width="4" stroke-linecap="round" stroke-linejoin="round"/>
<path d="M92.625 5.47296L81.5173 16.5649M86.2612 11.8277L89.7324 15.2939L93.782 11.25L90.3109 7.78377" stroke="#4F4F4F" stroke-width="4" stroke-linecap="round" stroke-linejoin="round"/>
<path d="M3.28848 8.35133H7.18591L6.04916 16.4189L11.6517 8.35133H15.9958L9.62181 16.7027C10.3255 18.4054 11.0427 20.0811 11.7735 21.7297C12.5314 23.3784 13.2757 25.0541 14.0064 26.7568H9.3376L5.84617 17.7973L4.58762 26.7568H0.690186L3.28848 8.35133ZM18.8662 12.4054H22.1953L22.0329 14.2297H22.1141C22.2494 14.1487 22.4389 13.9865 22.6825 13.7432C22.9531 13.5 23.2915 13.2568 23.6975 13.0135C24.6989 12.3919 25.6867 12.0811 26.6611 12.0811C28.0144 12.0811 28.9075 12.4865 29.3406 13.2973C29.7736 14.1081 29.8684 15.3649 29.6248 17.0676L28.2444 26.7568H24.55L25.7274 18C25.8627 16.973 25.8491 16.2838 25.6867 15.9324C25.5244 15.5541 25.159 15.3649 24.5906 15.3649C24.1034 15.3649 23.6568 15.5135 23.2508 15.8108C22.493 16.4054 22.0735 16.7838 21.9923 16.946L20.612 26.7568H16.8363L18.8662 12.4054ZM36.6362 24.3649C37.4482 24.3649 38.0842 23.9865 38.5444 23.2297C39.0316 22.473 39.3834 21.2568 39.5999 19.5811C39.8435 17.8784 39.83 16.6622 39.5593 15.9324C39.2887 15.2027 38.7609 14.8378 37.976 14.8378C37.1911 14.8378 36.5686 15.2027 36.1085 15.9324C35.6483 16.6622 35.2965 17.8784 35.0529 19.5811C34.8364 21.2838 34.8499 22.5135 35.0935 23.2703C35.3371 24 35.8514 24.3649 36.6362 24.3649ZM43.5785 16.1351C43.7409 17.0811 43.7139 18.2297 43.4973 19.5811C43.3079 20.9324 42.9966 22.0811 42.5636 23.027C42.1576 23.973 41.6434 24.7568 41.0208 25.3784C39.857 26.5405 38.2737 27.1216 36.2708 27.1216C33.2937 27.1216 31.575 25.7568 31.1149 23.027C30.9525 22.0811 30.9796 20.9189 31.1961 19.5405C31.4938 17 32.3193 15.0946 33.6726 13.8243C34.8905 12.6621 36.4468 12.0811 38.3413 12.0811C41.3727 12.0811 43.1184 13.4324 43.5785 16.1351ZM54.7773 15.4459C53.8842 15.1486 53.1263 15 52.5038 15C51.5565 15 50.8122 15.3784 50.2709 16.1351C49.7296 16.8648 49.3372 18.0541 49.0936 19.7027C48.877 21.3243 48.9447 22.473 49.2966 23.1487C49.6755 23.7973 50.2033 24.1216 50.8799 24.1216C51.5836 24.1216 52.1926 24.027 52.7068 23.8378C53.2211 23.6216 53.5729 23.4865 53.7624 23.4324L54.2901 25.7838C52.8016 26.6757 51.3806 27.1216 50.0273 27.1216C46.1299 27.1216 44.5195 24.6757 45.1961 19.7838C45.8728 14.6487 48.2681 12.0811 52.382 12.0811C53.5458 12.0811 54.6285 12.2703 55.6299 12.6486L54.7773 15.4459ZM59.4935 6.64863L63.3096 6.12164L61.5643 18.6081L66.0707 12.4054H70.3335L64.7711 18.8108L68.7502 26.7568H64.284L61.3609 19.9054L60.4273 26.7568H56.6516L59.4935 6.64863Z" fill="#4F4F4F"/>
<path d="M41.8 27.6973L44.853 27.2757L43.4564 37.2649L47.0615 32.3027H50.4718L46.0222 37.4271L49.2051 43.7838H45.6325L43.294 38.3027L42.547 43.7838H39.5265L41.8 27.6973ZM52.6876 32.3027H55.3509L55.2209 33.7622H55.2859C55.3942 33.6973 55.5458 33.5676 55.7406 33.373C55.9571 33.1784 56.2278 32.9838 56.5526 32.7892C57.3538 32.2919 58.144 32.0432 58.9235 32.0432C60.0061 32.0432 60.7207 32.3676 61.0673 33.0162C61.4138 33.6649 61.4894 34.6703 61.2945 36.0324L60.1902 43.7838H57.2346L58.1765 36.7784C58.2848 35.9568 58.274 35.4054 58.144 35.1243C58.0141 34.8216 57.7218 34.6703 57.2671 34.6703C56.8774 34.6703 56.5201 34.7892 56.1953 35.027C55.5891 35.5027 55.2535 35.8054 55.1885 35.9351L54.0842 43.7838H51.0637L52.6876 32.3027ZM66.9038 41.8703C67.5529 41.8703 68.062 41.5676 68.4298 40.9622C68.8196 40.3567 69.1015 39.3838 69.2745 38.0433C69.4694 36.6811 69.4584 35.7081 69.2422 35.1243C69.0254 34.5406 68.6034 34.2487 67.9755 34.2487C67.3477 34.2487 66.8496 34.5406 66.4811 35.1243C66.1133 35.7081 65.832 36.6811 65.6371 38.0433C65.4635 39.4054 65.4745 40.3892 65.6694 40.9946C65.8642 41.5784 66.2759 41.8703 66.9038 41.8703ZM72.4576 35.2865C72.5873 36.0432 72.566 36.9622 72.3924 38.0433C72.2408 39.1243 71.9917 40.0433 71.6452 40.8C71.3206 41.5568 70.9096 42.1838 70.4114 42.6811C69.4803 43.6108 68.2137 44.0757 66.6114 44.0757C64.2297 44.0757 62.8547 42.9838 62.4863 40.8C62.3565 40.0433 62.3785 39.1135 62.5514 38.0108C62.7895 35.9784 63.4503 34.4541 64.5324 33.4379C65.5068 32.5081 66.7521 32.0432 68.2679 32.0432C70.6928 32.0432 72.0892 33.1243 72.4576 35.2865ZM81.4162 34.7351C80.7019 34.4973 80.096 34.3784 79.5978 34.3784C78.8396 34.3784 78.2447 34.6811 77.8111 35.2865C77.3781 35.8703 77.0645 36.8216 76.8696 38.1406C76.6961 39.4378 76.7503 40.3567 77.0316 40.8973C77.3349 41.4162 77.7575 41.6757 78.2983 41.6757C78.8616 41.6757 79.3488 41.6 79.7598 41.4487C80.1715 41.2757 80.4528 41.1676 80.6045 41.1244L81.0265 43.0054C79.8359 43.7189 78.699 44.0757 77.6162 44.0757C74.4983 44.0757 73.2103 42.1189 73.7517 38.2054C74.293 34.0973 76.2089 32.0432 79.5004 32.0432C80.4315 32.0432 81.2975 32.1946 82.0983 32.4973L81.4162 34.7351ZM85.1894 27.6973L88.2422 27.2757L86.8458 37.2649L90.451 32.3027H93.8612L89.4114 37.4271L92.5946 43.7838H89.0217L86.6832 38.3027L85.9366 43.7838H82.9161L85.1894 27.6973Z" fill="#4F4F4F"/>
</g>
<defs>
<clipPath id="clip0_103_284">
<rect width="95" height="45" fill="white"/>
</clipPath>
</defs>
</svg>
