<svg width="28" height="28" viewBox="0 0 28 28" fill="none" xmlns="http://www.w3.org/2000/svg">
<rect width="28" height="28" rx="14" fill="#4F4F4F"/>
<path fill-rule="evenodd" clip-rule="evenodd" d="M14.6667 7.66667C14.6667 7.48986 14.5964 7.32029 14.4714 7.19526C14.3464 7.07024 14.1768 7 14 7C13.8232 7 13.6536 7.07024 13.5286 7.19526C13.4036 7.32029 13.3333 7.48986 13.3333 7.66667V13.3333H7.66667C7.48986 13.3333 7.32029 13.4036 7.19526 13.5286C7.07024 13.6536 7 13.8232 7 14C7 14.1768 7.07024 14.3464 7.19526 14.4714C7.32029 14.5964 7.48986 14.6667 7.66667 14.6667H13.3333V20.3333C13.3333 20.5101 13.4036 20.6797 13.5286 20.8047C13.6536 20.9298 13.8232 21 14 21C14.1768 21 14.3464 20.9298 14.4714 20.8047C14.5964 20.6797 14.6667 20.5101 14.6667 20.3333V14.6667H20.3333C20.5101 14.6667 20.6797 14.5964 20.8047 14.4714C20.9298 14.3464 21 14.1768 21 14C21 13.8232 20.9298 13.6536 20.8047 13.5286C20.6797 13.4036 20.5101 13.3333 20.3333 13.3333H14.6667V7.66667Z" fill="white"/>
</svg>
