<svg width="15" height="16" viewBox="0 0 15 16" fill="none" xmlns="http://www.w3.org/2000/svg">
<path d="M11.2104 10.06H10.5521L10.3187 9.83499C10.8395 9.22996 11.2202 8.5173 11.4334 7.748C11.6466 6.9787 11.6871 6.17178 11.5521 5.38499C11.1604 3.06832 9.22707 1.21832 6.89374 0.934987C6.07342 0.831208 5.24023 0.916463 4.45793 1.18423C3.67563 1.45199 2.96494 1.89517 2.38027 2.47985C1.79559 3.06452 1.35241 3.7752 1.08465 4.55751C0.816884 5.33981 0.731629 6.173 0.835408 6.99332C1.11874 9.32665 2.96874 11.26 5.28541 11.6517C6.0722 11.7867 6.87912 11.7462 7.64842 11.5329C8.41772 11.3197 9.13038 10.9391 9.73541 10.4183L9.96041 10.6517V11.31L13.5021 14.8517C13.8437 15.1933 14.4021 15.1933 14.7437 14.8517C15.0854 14.51 15.0854 13.9517 14.7437 13.61L11.2104 10.06ZM6.21041 10.06C4.13541 10.06 2.46041 8.38499 2.46041 6.30999C2.46041 4.23499 4.13541 2.55999 6.21041 2.55999C8.28541 2.55999 9.96041 4.23499 9.96041 6.30999C9.96041 8.38499 8.28541 10.06 6.21041 10.06Z" fill="#808080"/>
</svg>
